<svg width="24" height="24" viewBox="0 0 24 24" fill="yellow" xmlns="http://www.w3.org/2000/svg">
<path d="M21.6997 20.2809L12.0997 10.6809L13.4997 9.26088L14.2197 9.97088C14.3122 10.0636 14.4221 10.1371 14.5431 10.1873C14.664 10.2375 14.7937 10.2633 14.9247 10.2633C15.0557 10.2633 15.1853 10.2375 15.3063 10.1873C15.4273 10.1371 15.5372 10.0636 15.6297 9.97088L16.3397 9.26088C16.4324 9.16837 16.5059 9.05848 16.5561 8.93751C16.6063 8.81653 16.6321 8.68685 16.6321 8.55588C16.6321 8.42491 16.6063 8.29523 16.5561 8.17426C16.5059 8.05328 16.4324 7.9434 16.3397 7.85088L10.6797 2.19088C10.5872 2.09818 10.4773 2.02463 10.3563 1.97445C10.2353 1.92427 10.1057 1.89844 9.97469 1.89844C9.84372 1.89844 9.71404 1.92427 9.59306 1.97445C9.47209 2.02463 9.3622 2.09818 9.26969 2.19088L8.55969 2.90088C8.16969 3.29088 8.16969 3.92088 8.55969 4.31088L9.26969 5.00088L7.84969 6.43088C7.75717 6.33818 7.64729 6.26463 7.52631 6.21445C7.40534 6.16427 7.27566 6.13844 7.14469 6.13844C7.01372 6.13844 6.88404 6.16427 6.76306 6.21445C6.64209 6.26463 6.5322 6.33818 6.43969 6.43088C6.04969 6.82088 6.04969 7.46088 6.43969 7.85088L5.02969 9.26088L4.31969 8.55088C3.92969 8.16088 3.28969 8.16088 2.89969 8.55088L2.19969 9.26088C1.80969 9.65088 1.80969 10.2909 2.19969 10.6809L7.84969 16.3309C8.23969 16.7209 8.87969 16.7209 9.26969 16.3309L9.96969 15.6309C10.0646 15.5386 10.1401 15.4282 10.1917 15.3063C10.2432 15.1843 10.2698 15.0533 10.2698 14.9209C10.2698 14.7885 10.2432 14.6574 10.1917 14.5355C10.1401 14.4135 10.0646 14.3031 9.96969 14.2109L9.26969 13.5009L10.6797 12.0909L20.2897 21.7009C20.3822 21.7936 20.4921 21.8671 20.6131 21.9173C20.734 21.9675 20.8637 21.9933 20.9947 21.9933C21.1257 21.9933 21.2553 21.9675 21.3763 21.9173C21.4973 21.8671 21.6072 21.7936 21.6997 21.7009C22.0897 21.3109 22.0897 20.6709 21.6997 20.2809ZM3.99969 19.0009C3.46925 19.0009 2.96055 19.2116 2.58547 19.5867C2.2104 19.9617 1.99969 20.4704 1.99969 21.0009V22.0009H11.9997V21.0009C11.9997 20.4704 11.789 19.9617 11.4139 19.5867C11.0388 19.2116 10.5301 19.0009 9.99969 19.0009H3.99969Z" fill="white"/>
</svg>
