<svg width="142" height="91" viewBox="0 0 142 91" fill="none" xmlns="http://www.w3.org/2000/svg">
<path d="M141.954 83.0115C140.241 82.517 138.88 81.6318 137.677 80.5423C133.446 76.7082 131.185 71.9018 131.131 66.2033C131.042 56.8084 131.047 47.4116 131.13 38.0168C131.178 32.5489 128.584 28.873 123.827 26.5719C117.868 23.6885 110.42 25.5499 106.571 30.8262C105.225 32.671 104.519 34.7483 104.519 37.0475C104.519 45.7222 104.516 54.3979 104.521 63.0727C104.521 64.465 105.12 65.0503 106.538 65.064C107.791 65.0757 109.045 65.0777 110.298 65.064C111.593 65.0493 112.243 64.3869 112.255 63.0756C112.266 61.7926 112.258 60.5097 112.258 59.1408H124.391C124.413 59.4105 124.449 59.6538 124.449 59.898C124.452 64.9399 124.441 69.9827 124.463 75.0246C124.466 75.7047 124.287 75.9529 123.568 75.9509C113.822 75.9304 104.075 75.9372 94.3286 75.9353C94.1459 75.9353 93.9632 75.9079 93.7091 75.8884C93.6847 75.5864 93.6427 75.3177 93.6427 75.049C93.6466 62.1776 93.6153 49.3053 93.6818 36.4348C93.7081 31.2904 95.6164 26.7742 98.9669 22.9107C103.355 17.8503 108.944 15.0304 115.626 14.532C124.854 13.8442 132.376 17.1311 137.943 24.5601C140.601 28.1089 141.966 32.2001 141.978 36.6439C142.017 51.8018 141.994 66.9606 141.992 82.1184C141.992 82.3666 141.971 82.6138 141.954 83.0124V83.0115ZM135.952 54.9441C136.734 54.9441 137.517 54.9705 138.297 54.9363C139.045 54.9041 139.65 54.1243 139.47 53.5097C138.491 50.1583 137.51 46.8068 136.56 43.4465C136.484 43.1778 136.688 42.8427 136.685 42.5388C136.681 42.1528 136.704 41.6946 136.507 41.4122C136.401 41.2607 135.661 41.2891 135.559 41.4542C135.377 41.7464 135.436 42.2056 135.448 42.5935C135.456 42.8339 135.666 43.1016 135.607 43.3058C134.669 46.5733 133.724 49.8387 132.732 53.0906C132.371 54.2729 132.802 54.9353 134.075 54.9441C134.701 54.949 135.326 54.9441 135.951 54.9441H135.952ZM99.2298 54.9441C99.9821 54.9441 100.735 54.9676 101.486 54.9373C102.212 54.908 102.91 54.1605 102.754 53.6348C101.783 50.342 100.797 47.054 99.8619 43.7504C99.7515 43.3615 99.9665 42.8906 99.9499 42.4616C99.9362 42.0971 99.9128 41.6252 99.6909 41.4122C99.5219 41.249 98.8741 41.2881 98.7285 41.4689C98.537 41.7063 98.5927 42.1743 98.6103 42.5398C98.624 42.8124 98.8673 43.1153 98.8018 43.3459C97.8716 46.5899 96.9238 49.83 95.9399 53.0583C95.5734 54.2601 96.0395 54.9383 97.3498 54.9441C97.9761 54.9471 98.6034 54.9441 99.2298 54.9441Z" fill="#DDB762"/>
<path d="M36.2633 22.7532C37.3479 23.8935 36.9766 25.1334 36.8378 26.2405C36.23 31.1191 35.5402 35.989 34.8386 40.855C34.3804 44.0316 36.6531 46.4401 39.7906 45.805C41.4341 45.4718 43.0434 44.7859 44.555 44.0335C46.0812 43.2734 47.5176 42.8864 49.1503 43.6017C50.3531 44.1283 51.5198 43.9202 52.619 43.2255C55.0628 41.6807 57.5397 40.1877 59.9415 38.5813C60.7173 38.0625 61.4052 37.3335 61.9533 36.5704C64.8162 32.5848 68.711 29.9652 73.1099 27.9914C73.8251 27.6709 74.5423 27.3075 75.2976 27.1433C75.6914 27.0573 76.2679 27.2566 76.5718 27.5351C76.732 27.6817 76.6079 28.3647 76.3998 28.65C74.8736 30.7498 72.9926 32.3493 70.375 33.0001C68.2869 33.5199 66.5848 34.7813 64.9941 36.1952C64.4205 36.7052 64.4342 37.1186 65.0165 37.5837C67.1378 39.2829 67.3274 39.7743 65.2012 42.3871C65.0664 42.5522 64.9022 42.6939 64.7517 42.8464C62.7555 44.8514 62.5474 44.868 60.2991 43.2069C59.0327 42.2718 58.5442 42.2366 57.2095 43.1072C55.4458 44.2583 53.6948 45.4298 51.9536 46.615C50.3013 47.7407 48.6559 48.0504 46.8912 46.8251C46.1008 46.276 45.3025 46.5506 44.6517 47.1671C43.5378 48.2234 42.4689 49.3265 41.3569 50.3847C39.9118 51.7605 38.2439 52.7356 36.1822 52.4923C33.0027 52.1181 31.4999 50.2958 30.897 46.8525C30.4417 44.2505 31.1354 41.8243 31.5693 39.3493C32.2269 35.5962 32.8923 31.8422 33.6915 28.1175C34.0022 26.6684 34.6403 25.2809 35.2227 23.9042C35.4093 23.4635 35.8929 23.1479 36.2633 22.7512V22.7532Z" fill="#DDB762"/>
<path d="M36.7137 70.5817V62.7512C34.2445 64.4455 34.6149 66.7114 35.3115 69.2059C33.5664 68.564 32.1232 68.0285 31.2292 66.5101C30.4563 65.1969 29.5163 63.9813 28.419 62.7717V70.5387H25.0158C24.9884 70.1508 24.9386 69.7707 24.9376 69.3906C24.9259 65.4617 24.9337 61.5327 24.9063 57.6038C24.8995 56.6628 25.2435 56.3394 26.2254 56.2505C27.8865 56.1 28.8695 56.739 29.6463 58.1725C30.4573 59.6694 31.5077 61.0373 32.5258 62.5714C33.6534 60.8888 34.7155 59.2961 35.7854 57.7093C36.613 56.4811 38.0269 55.9007 39.4046 56.3306C39.7075 56.4254 40.0818 56.9286 40.0837 57.2471C40.1199 61.4614 40.1042 65.6756 40.0593 69.8899C40.0564 70.1224 39.6987 70.5309 39.4799 70.5504C38.6024 70.6266 37.7133 70.5817 36.7137 70.5817Z" fill="#DDB762"/>
<path d="M110.796 64.1618C110.307 64.323 110.024 64.4872 109.736 64.4979C108.859 64.5292 107.981 64.5204 107.104 64.4901C105.534 64.4364 104.998 63.8687 104.99 62.2682C104.969 58.2601 104.964 54.251 104.938 50.2429C104.914 46.2681 104.938 42.2913 104.822 38.3184C104.687 33.7035 107.543 28.517 113.216 26.6869C119.668 24.6057 126.553 27.367 129.453 33.3068C130.159 34.7539 130.319 36.2967 130.32 37.8718C130.327 46.483 130.302 55.0952 130.356 63.7065C130.378 67.3716 130.593 71.0299 132.139 74.4546C133.939 78.4402 136.659 81.5484 140.66 83.4596C140.89 83.569 141.005 83.9169 141.173 84.1543C140.87 84.1475 140.519 84.2403 140.272 84.1192C134.713 81.4096 131.822 76.6541 130.394 70.896C129.909 68.9437 129.681 66.884 129.656 64.8683C129.558 57.1345 129.596 49.3987 129.571 41.663C129.566 40.1621 129.502 38.6613 129.467 37.1605C129.39 33.7944 127.731 31.3018 125.147 29.3124C118.327 24.0643 109.709 27.0592 106.6 33.4055C106.017 34.5966 105.737 36.0515 105.726 37.3881C105.654 45.5929 105.696 53.7986 105.709 62.0034C105.711 63.4602 106.021 63.7475 107.482 63.7651C108.421 63.7768 109.361 63.7925 110.3 63.8179C110.374 63.8198 110.446 63.9136 110.797 64.1589L110.796 64.1618Z" fill="#DDB762"/>
<path d="M113.237 40.8483C113.434 40.4917 113.551 40.0373 113.843 39.794C115.75 38.2023 119.645 38.2062 121.556 39.8106C121.807 40.0217 121.824 40.5122 121.949 40.8737C121.919 40.9274 121.889 40.9802 121.86 41.034C121.951 41.4971 122.043 41.9593 122.161 42.5631C121.714 42.4547 121.486 42.399 121.233 42.3384C121.133 42.9803 121.033 43.6252 120.907 44.4401C121.804 43.7308 122.52 43.0829 123.317 42.5582C124.098 42.0443 124.96 41.6554 125.787 41.2118C125.843 41.3046 125.897 41.3974 125.953 41.4903C124.796 42.8748 123.59 44.2213 122.494 45.6518C120.954 47.6607 119.492 49.7302 118.005 51.7792C117.326 52.7143 116.618 52.7661 115.904 51.8515C115.509 51.3463 115.212 50.7649 114.845 50.1787C115.433 50.0927 115.896 50.0243 116.359 49.9559C116.375 49.8699 116.389 49.7849 116.405 49.6989C114.814 50.0634 114.09 48.9856 113.3 48.0027C112.874 47.4741 112.417 46.9699 111.933 46.4051C112.508 45.5081 113.371 45.2892 114.622 45.6019C114.468 44.4577 114.332 43.4425 114.189 42.3667C113.848 42.4439 113.62 42.4947 113.188 42.5915C113.26 42.0628 113.317 41.6358 113.375 41.2098C113.509 41.0418 113.643 40.8727 113.777 40.7047C113.819 40.6587 113.861 40.6138 113.903 40.5679C113.852 40.6011 113.8 40.6353 113.749 40.6685C113.579 40.7281 113.41 40.7887 113.24 40.8483H113.237ZM119.611 39.7149C119.413 39.5957 119.217 39.4764 119.02 39.3572C118.68 39.3445 118.339 39.324 117.998 39.3201C116.688 39.3064 115.402 39.4002 114.307 40.2445C114.264 40.2865 114.221 40.3285 114.177 40.3705C114.25 40.3588 114.324 40.347 114.397 40.3353C115.891 39.7276 117.447 39.5771 119.042 39.7051C119.235 39.7129 119.428 39.7217 119.62 39.7295C119.745 39.8292 119.869 39.9289 119.994 40.0285C120.022 39.9562 120.05 39.8849 120.079 39.8126C119.923 39.7803 119.768 39.7481 119.612 39.7158L119.611 39.7149ZM117.354 48.3788C117.48 48.4228 117.607 48.4668 117.733 48.5117C117.907 48.0163 118.188 47.5307 118.232 47.0236C118.313 46.0944 118.29 45.1515 118.232 44.2193C118.216 43.9574 117.931 43.7132 117.77 43.4601C117.631 43.6975 117.378 43.9311 117.372 44.1724C117.334 45.5736 117.354 46.9767 117.354 48.3798V48.3788ZM116.049 47.8043C116.173 47.7682 116.297 47.733 116.422 47.6968C116.422 46.493 116.445 45.2883 116.403 44.0864C116.394 43.8509 116.132 43.6252 115.987 43.3946C115.831 43.6331 115.564 43.8627 115.543 44.1118C115.483 44.8535 115.456 45.6097 115.543 46.3465C115.602 46.8448 115.873 47.3187 116.05 47.8043H116.049ZM119.235 46.2175C120.508 45.7182 120.074 44.7616 120.104 43.9789C120.111 43.8099 119.84 43.6291 119.698 43.4542C119.543 43.6448 119.273 43.8265 119.257 44.0278C119.202 44.7274 119.235 45.4339 119.235 46.2175ZM115.03 41.8518C114.978 41.7717 114.926 41.6925 114.874 41.6124C114.671 41.7433 114.468 41.8752 114.266 42.0062C114.306 42.0736 114.346 42.14 114.386 42.2075L115.029 41.8508L115.03 41.8518ZM118.945 41.3496C119.016 41.3202 119.086 41.2919 119.156 41.2626C119.086 41.1717 119.016 41.0818 118.945 40.991V41.3496ZM121.428 40.4233C121.375 40.4008 121.311 40.349 121.272 40.3637C121.234 40.3783 121.223 40.4614 121.2 40.5141C121.253 40.5366 121.318 40.5894 121.356 40.5737C121.394 40.5581 121.406 40.476 121.428 40.4233ZM116.25 41.4092C116.265 41.3642 116.279 41.3193 116.293 41.2743C116.18 41.2304 116.067 41.1864 115.953 41.1434C115.935 41.1952 115.916 41.247 115.898 41.2988C116.016 41.3359 116.133 41.372 116.251 41.4092H116.25ZM120.499 39.8644C120.473 39.8644 120.448 39.8644 120.423 39.8644V40.1438C120.448 40.1438 120.473 40.1438 120.499 40.1438V39.8644ZM120.31 41.5567C120.285 41.5567 120.26 41.5567 120.234 41.5567V41.8342C120.26 41.8342 120.285 41.8342 120.31 41.8342V41.5567ZM119.557 41.1795C119.534 41.1795 119.509 41.1795 119.486 41.1795V41.458C119.509 41.458 119.534 41.458 119.557 41.458V41.1795ZM120.89 42.0628C120.828 42.0404 120.776 42.015 120.722 42.0052C120.701 42.0013 120.675 42.0345 120.651 42.0501C120.686 42.0795 120.72 42.1322 120.754 42.1332C120.797 42.1332 120.84 42.0912 120.891 42.0619L120.89 42.0628Z" fill="#DDB762"/>
<path d="M65.4701 64.169C67.1673 64.4035 68.2021 64.8794 69.144 65.9102C68.077 66.3948 67.0452 66.8639 66.2762 67.2137C66.7999 68.265 67.3442 69.3594 67.9812 70.6374C66.7804 70.6374 65.8326 70.7693 64.9512 70.5837C64.492 70.487 63.978 69.8997 63.7865 69.4161C62.9804 67.3856 63.0214 67.369 60.777 67.369C60.5621 67.369 60.3452 67.3925 60.1341 67.3651C59.1844 67.24 58.6821 67.5576 58.3675 68.5591C57.6513 70.8397 56.9693 71.1094 54.2764 70.4704C54.3624 70.1342 54.419 69.7903 54.5363 69.4678C55.958 65.5438 57.4177 61.6334 58.7984 57.6957C59.2381 56.4411 60.1361 56.3434 61.2382 56.275C62.3863 56.2027 62.7899 56.7977 63.1045 57.7387C63.7826 59.7662 64.5311 61.7702 65.2512 63.784C64.8232 63.7948 64.3962 63.8133 63.9683 63.8133C62.7332 63.8159 61.8948 63.2391 61.4532 62.0829C61.3223 61.7409 61.164 61.4097 60.9158 60.839C60.5142 62.0799 60.1966 63.0619 59.8713 64.0664C60.1282 64.125 60.2308 64.169 60.3334 64.169C62.0453 64.1719 63.7572 64.169 65.4691 64.169H65.4701Z" fill="#DDB762"/>
<path d="M73.958 67.3931C76.9323 67.5494 79.851 66.9074 82.3035 69.1118C80.9424 69.913 79.6565 70.6038 78.1576 70.6312C75.4081 70.681 72.6565 70.6517 69.906 70.6722C69.0686 70.6781 68.6612 70.3498 68.6651 69.4655C68.67 68.2822 69.1175 67.3032 69.9255 66.4922C73.1285 63.2804 76.3275 60.0638 79.592 56.9156C79.9975 56.5247 80.83 56.3225 81.3811 56.4368C81.6801 56.4993 81.9087 57.3973 81.983 57.9435C82.1237 58.9909 81.5238 59.7658 80.8183 60.4664C78.7908 62.4802 76.7692 64.4989 74.7485 66.5195C74.5248 66.7433 74.3235 66.9876 73.958 67.3921V67.3931Z" fill="#DDB762"/>
<path d="M47.9616 34.1104C48.7306 33.2525 49.4566 32.4161 50.2119 31.6071C50.8558 30.9173 51.6257 30.799 52.4436 31.2749C53.15 31.6862 53.8897 32.0712 54.5101 32.593C55.584 33.4968 55.7149 34.5277 54.7857 35.5859C54.0675 36.4037 53.192 37.1385 52.254 37.6817C51.8202 37.9329 51.0189 37.7736 50.4776 37.5616C49.7243 37.2675 49.0511 36.7594 48.3563 36.3226C47.7163 35.921 47.2004 35.9855 46.6454 36.5376C44.0932 39.0751 44.0962 39.0389 40.9694 37.3896C38.3205 35.9923 38.4456 35.9493 40.5082 34.0332C41.1092 33.4753 41.7325 32.9379 42.311 32.3575C42.9666 31.6999 43.6828 31.6491 44.4518 32.08C45.5393 32.6887 46.6112 33.3268 47.9626 34.1095L47.9616 34.1104Z" fill="#DDB762"/>
<path d="M72.7215 39.7178C71.7757 38.9889 70.8875 38.3909 70.1195 37.6659C69.841 37.4031 69.6065 36.6849 69.7639 36.4357C70.9598 34.5528 73.2609 32.9279 75.6255 33.8239C76.5117 34.16 77.2739 34.8899 78.0096 35.5358C78.5695 36.0263 78.463 36.6038 77.864 37.0738C76.9123 37.8203 75.9704 38.5785 74.9406 39.3983C75.9128 40.1184 76.8654 40.7692 77.7556 41.4961C78.7405 42.3003 78.7034 42.5895 77.7009 43.3732C76.6906 44.1627 75.6763 44.9492 74.6816 45.7583C73.9664 46.3397 73.2922 46.3758 72.5711 45.7622C71.7572 45.0694 70.91 44.4157 70.0853 43.7357C69.4639 43.2227 69.416 42.6892 70.0453 42.1303C70.8944 41.3769 71.7317 40.6109 72.7215 39.7178Z" fill="#DDB762"/>
<path d="M17.042 70.9708C14.9823 68.6258 15.1396 65.9729 15.4171 63.709C13.5176 61.1402 11.8096 58.8303 9.94238 56.3055C11.3162 56.3055 12.4076 56.2752 13.4961 56.327C13.7707 56.3397 14.1215 56.5536 14.2856 56.7833C15.1933 58.0545 16.0552 59.3599 16.9844 60.7288C17.7182 59.7146 18.5458 58.6896 19.2366 57.5806C19.86 56.579 20.6524 56.154 21.8191 56.2869C22.4513 56.3582 23.0981 56.2996 23.957 56.2996C23.6942 56.796 23.5447 57.1721 23.316 57.4926C22.2187 59.0316 21.1283 60.5764 19.9772 62.0753C19.2014 63.0856 18.8223 64.1545 18.9063 65.4443C19.0373 67.4659 18.5771 69.3273 17.042 70.9708Z" fill="#DDB762"/>
<path d="M28.4198 36.6168C27.8306 38.2662 27.2951 39.8149 26.7235 41.3489C26.1636 42.8517 25.551 44.334 24.9882 45.8358C24.0443 48.3499 22.263 50.0178 19.7294 50.779C17.3433 51.4952 14.9093 52.0648 12.4754 52.6022C12.0767 52.6902 11.5676 52.2749 11.1094 52.0922C11.3497 51.7736 11.5237 51.3427 11.8412 51.1561C13.9029 49.9474 15.9734 48.7485 18.0849 47.6307C20.7964 46.1963 22.6285 44.0193 23.841 41.2453C24.4263 39.9067 25.0673 38.5906 25.7425 37.2949C25.9995 36.8005 26.363 36.3207 26.7919 35.9729C27.0381 35.7736 27.5541 35.7315 27.8677 35.8439C28.1208 35.9348 28.2517 36.3628 28.4198 36.6168Z" fill="#DDB762"/>
<path d="M41.3233 58.9297C41.0204 55.3789 41.3429 55.8791 43.9146 55.8703C46.9172 55.8596 49.9209 55.8518 52.9235 55.8469C54.4986 55.844 54.4986 55.8488 54.4986 57.4689C54.4986 57.9281 54.4986 58.3883 54.4986 58.9306H41.3233V58.9297Z" fill="#DDB762"/>
<path d="M31.7407 30.3493C31.0919 31.172 30.5418 32.0875 29.7875 32.7832C28.1889 34.2596 27.5636 34.2596 25.7227 33.1291C25.0241 32.7002 24.3343 32.2546 23.6268 31.8394C22.9448 31.4397 22.9565 30.9561 23.4646 30.4587C24.4847 29.4621 25.5087 28.4664 26.5875 27.5342C26.8679 27.2919 27.4512 27.077 27.7258 27.2069C28.8465 27.7394 29.9272 28.3726 30.9659 29.0556C31.2746 29.2588 31.3958 29.7493 31.7407 30.3483V30.3493Z" fill="#DDB762"/>
<path d="M47.7395 71.2879C47.1445 69.8593 46.3442 68.7269 46.2436 67.5368C46.0296 64.9963 46.1781 62.4255 46.1781 59.7991H49.5843C49.5843 60.2857 49.5823 60.7674 49.5843 61.2491C49.5921 63.1036 49.597 64.9582 49.6107 66.8117C49.6224 68.4337 48.8153 69.703 47.7385 71.2869L47.7395 71.2879Z" fill="#DDB762"/>
<path d="M79.7666 56.2975C78.9087 57.043 78.086 57.8355 77.1763 58.5126C76.7767 58.8106 76.2061 59.0041 75.7058 59.0197C73.7096 59.0832 71.7094 59.0344 69.7122 59.0783C68.7957 59.0989 68.5368 58.6289 68.5133 57.8306C68.4742 56.4968 68.7517 55.9037 69.6438 55.893C72.9171 55.8539 76.1914 55.8773 79.4657 55.8773C79.5653 56.0171 79.665 56.1568 79.7657 56.2965L79.7666 56.2975Z" fill="#DDB762"/>
<path d="M60.696 22.7144C60.6814 23.8097 59.971 24.0657 59.2382 24.268C55.0161 25.4336 50.7882 26.5788 46.5681 27.7504C44.7497 28.2555 42.9469 28.8174 41.1315 29.3333C40.5677 29.4935 39.9853 29.5902 39.3561 29.729C39.2417 28.5682 39.9423 28.2897 40.6761 28.0826C44.3432 27.0468 48.0113 26.016 51.6842 25.0037C54.1905 24.3129 56.7036 23.6514 59.2177 22.9899C59.6847 22.8668 60.1694 22.8101 60.696 22.7134V22.7144Z" fill="#DDB762"/>
<path d="M79.1007 21.8984C79.2042 23.0319 78.4665 23.2302 77.7913 23.4169C73.8028 24.52 69.8055 25.5929 65.816 26.6931C63.5119 27.3282 61.2216 28.0102 58.9127 28.6258C58.5873 28.7128 58.1926 28.5408 57.8301 28.489C58.0831 28.1529 58.2717 27.6233 58.6 27.5129C60.4937 26.8807 62.4127 26.3208 64.3366 25.7863C68.8049 24.5454 73.281 23.3299 77.7562 22.1163C78.1763 22.002 78.6209 21.9737 79.0997 21.8984H79.1007Z" fill="#DDB762"/>
<path d="M65.4689 64.1691C63.757 64.1701 62.0452 64.173 60.3333 64.1691C60.2307 64.1691 60.1281 64.1251 59.8711 64.0665C60.1965 63.062 60.514 62.08 60.9156 60.8391C61.1628 61.4097 61.3211 61.741 61.453 62.083C61.896 63.2366 62.7343 63.8134 63.9681 63.8134C64.3961 63.8134 64.8231 63.7939 65.251 63.7841C65.3243 63.9121 65.3966 64.0411 65.4699 64.1691H65.4689Z" fill="#F8F0DD"/>
<path d="M118.275 37.8532H116.995C116.867 37.4369 116.733 37.0031 116.599 36.5683C116.892 36.368 117.26 36.1178 117.65 35.8511C117.968 36.0768 118.348 36.3465 118.727 36.6152C118.596 36.9747 118.445 37.39 118.276 37.8532H118.275Z" fill="#DDB762"/>
<path d="M113.776 40.7036C113.642 40.8717 113.507 41.0407 113.373 41.2088C113.328 41.0886 113.282 40.9684 113.237 40.8482C113.407 40.7886 113.577 40.7281 113.746 40.6685L113.775 40.7036H113.776Z" fill="#E3BF65"/>
<path d="M121.861 41.0343C121.89 40.9805 121.919 40.9268 121.95 40.874C121.92 40.9278 121.89 40.9805 121.861 41.0343Z" fill="#E3BF65"/>
<path d="M135.952 54.9441C135.327 54.9441 134.701 54.948 134.076 54.9441C132.803 54.9353 132.372 54.2728 132.732 53.0905C133.724 49.8387 134.67 46.5732 135.608 43.3058C135.667 43.1016 135.457 42.8338 135.449 42.5935C135.437 42.2056 135.377 41.7463 135.559 41.4542C135.662 41.289 136.401 41.2607 136.508 41.4122C136.705 41.6945 136.682 42.1528 136.686 42.5388C136.689 42.8426 136.486 43.1778 136.561 43.4465C137.511 46.8068 138.492 50.1572 139.471 53.5097C139.65 54.1253 139.047 54.904 138.298 54.9363C137.517 54.9705 136.735 54.9441 135.953 54.9441H135.952ZM136.508 45.8971C136.479 45.9078 136.448 45.9176 136.419 45.9283V53.3866H139.018C138.164 50.8383 137.336 48.3682 136.508 45.8971ZM135.757 45.9166C135.713 45.9117 135.67 45.9068 135.626 45.902C134.797 48.374 133.969 50.8461 133.122 53.3739H135.756V45.9166H135.757Z" fill="#FDFBF7"/>
<path d="M99.2296 54.9441C98.6033 54.9441 97.976 54.9471 97.3496 54.9441C96.0384 54.9383 95.5723 54.2602 95.9397 53.0583C96.9246 49.83 97.8714 46.5899 98.8016 43.3459C98.8681 43.1163 98.6238 42.8134 98.6101 42.5398C98.5925 42.1743 98.5359 41.7063 98.7283 41.4689C98.8739 41.2881 99.5217 41.249 99.6908 41.4122C99.9126 41.6252 99.936 42.0972 99.9497 42.4616C99.9663 42.8915 99.7523 43.3615 99.8618 43.7504C100.797 47.053 101.783 50.342 102.754 53.6348C102.909 54.1605 102.212 54.908 101.486 54.9373C100.734 54.9676 99.982 54.9441 99.2296 54.9441ZM96.2983 53.3827H98.9638V45.7525C98.9326 45.7427 98.9013 45.733 98.87 45.7222C98.0209 48.251 97.1718 50.7797 96.2983 53.3827ZM102.265 53.412C101.37 50.7846 100.513 48.2646 99.5911 45.56V53.412H102.265Z" fill="#FDFBF7"/>
<path d="M117.354 48.3792C117.354 46.977 117.334 45.5739 117.372 44.1718C117.379 43.9314 117.631 43.6969 117.77 43.4595C117.931 43.7125 118.216 43.9568 118.232 44.2187C118.289 45.1508 118.313 46.0937 118.232 47.023C118.188 47.5301 117.907 48.0157 117.733 48.5111C117.607 48.4671 117.48 48.4232 117.354 48.3782V48.3792Z" fill="#FBF8EF"/>
<path d="M116.049 47.8042C115.872 47.3196 115.6 46.8457 115.542 46.3464C115.455 45.6106 115.482 44.8534 115.542 44.1117C115.562 43.8626 115.83 43.6329 115.985 43.3945C116.131 43.6251 116.393 43.8508 116.402 44.0863C116.445 45.2882 116.421 46.4929 116.421 47.6967C116.297 47.7329 116.173 47.7681 116.048 47.8042H116.049Z" fill="#FBF8EF"/>
<path d="M119.235 46.2176C119.235 45.4349 119.202 44.7275 119.257 44.0279C119.272 43.8266 119.543 43.6449 119.697 43.4543C119.84 43.6292 120.111 43.81 120.104 43.9791C120.073 44.7607 120.507 45.7183 119.235 46.2176Z" fill="#FBF8EF"/>
<path d="M114.306 40.2439C115.402 39.4006 116.688 39.3068 117.999 39.3205C118.339 39.3244 118.679 39.3449 119.02 39.3576C119.028 39.4729 119.034 39.5892 119.041 39.7055C117.447 39.5765 115.891 39.728 114.396 40.3357C114.367 40.3045 114.336 40.2742 114.305 40.2448L114.306 40.2439Z" fill="#F7EDD4"/>
<path d="M115.03 41.8519L114.387 42.2086C114.347 42.1412 114.307 42.0747 114.267 42.0073C114.469 41.8764 114.672 41.7445 114.874 41.6135C114.926 41.6936 114.978 41.7728 115.031 41.8529L115.03 41.8519Z" fill="#DDB762"/>
<path d="M119.611 39.7151C119.766 39.7473 119.922 39.7796 120.078 39.8118C120.05 39.8841 120.021 39.9555 119.993 40.0278C119.869 39.9281 119.745 39.8284 119.621 39.7288L119.612 39.7151H119.611Z" fill="#E3BF65"/>
<path d="M121.428 40.4235C121.405 40.4763 121.394 40.5583 121.356 40.574C121.318 40.5886 121.253 40.5368 121.201 40.5144C121.223 40.4616 121.235 40.3786 121.272 40.3639C121.31 40.3492 121.375 40.401 121.428 40.4235Z" fill="#E3BF65"/>
<path d="M116.25 41.4091C116.132 41.372 116.015 41.3358 115.896 41.2987C115.915 41.2469 115.934 41.1951 115.952 41.1433C116.066 41.1873 116.179 41.2313 116.292 41.2742C116.278 41.3192 116.264 41.3641 116.249 41.4091H116.25Z" fill="#DDB762"/>
<path d="M120.499 39.8647V40.1442C120.473 40.1442 120.448 40.1442 120.422 40.1442V39.8647C120.448 39.8647 120.473 39.8647 120.499 39.8647Z" fill="#E3BF65"/>
<path d="M113.746 40.6685C113.797 40.6353 113.849 40.6011 113.9 40.5679C113.858 40.6128 113.816 40.6587 113.774 40.7047L113.745 40.6695L113.746 40.6685Z" fill="#F7EDD4"/>
<path d="M114.397 40.3345C114.323 40.3462 114.25 40.358 114.177 40.3697C114.22 40.3277 114.263 40.2857 114.306 40.2437C114.336 40.273 114.366 40.3033 114.396 40.3345H114.397Z" fill="#F7EDD4"/>
<path d="M136.507 45.897C137.335 48.3671 138.164 50.8382 139.018 53.3865H136.418V45.9282C136.448 45.9175 136.478 45.9077 136.507 45.897Z" fill="#DDB762"/>
<path d="M135.756 45.9165V53.3738H133.123C133.97 50.846 134.797 48.3739 135.626 45.9019C135.67 45.9067 135.713 45.9116 135.757 45.9165H135.756Z" fill="#DDB762"/>
<path d="M96.2979 53.3827C97.1714 50.7806 98.0205 48.2519 98.8696 45.7222C98.9009 45.7319 98.9321 45.7417 98.9634 45.7525V53.3827H96.2979Z" fill="#DDB762"/>
<path d="M102.265 53.4121H99.5908V45.5601C100.512 48.2647 101.37 50.7846 102.265 53.4121Z" fill="#DDB762"/>
<path d="M118.285 76.3702V79.9493V90.1718H1V0.991455H118.285V11.212V14.2459" stroke="#DDB762" strokeWidth="0.488552" stroke-miterlimit="10"/>
<path d="M112.8 40.9917C112.8 40.9917 118.284 36.7149 122.994 41.5565C122.994 41.5565 117.348 37.4917 112.61 41.7294C108.507 45.3984 112.801 40.9907 112.801 40.9907L112.8 40.9917Z" fill="white"/>
<path d="M120.987 41.2101L118.074 40.7368L117.829 42.2443L120.742 42.7176L120.987 41.2101Z" fill="#DDB762"/>
</svg>
