<svg width="121" height="27" viewBox="0 0 121 27" fill="none" xmlns="http://www.w3.org/2000/svg">
<path d="M42.5322 20.1226H37.6332L36.4363 23.2911H34.293L39.0806 11.4023H41.1126L46.0116 23.2911H43.757L42.5322 20.1226ZM38.2456 18.4977H41.892L40.5838 15.0854C40.4167 14.625 40.2219 14.0834 40.0549 13.5147C39.8879 14.0292 39.7209 14.5438 39.5538 15.0583L38.2456 18.4977Z" fill="black"/>
<path d="M46.875 16.6012C46.875 15.9512 46.8472 15.2201 46.8193 14.4347H48.7678C48.8513 14.8138 48.8791 15.1659 48.907 15.545C49.7142 14.6784 50.6328 14.2451 51.6905 14.2451C52.3029 14.2451 52.8596 14.3805 53.3885 14.6784C53.9173 14.9763 54.3349 15.4367 54.6411 16.0867C54.9473 16.7366 55.1143 17.5491 55.1143 18.524C55.1143 19.5531 54.9194 20.4468 54.5576 21.178C54.1957 21.9092 53.6947 22.4779 53.0266 22.8299C52.3864 23.2091 51.6348 23.3986 50.772 23.3986C50.1596 23.3986 49.5472 23.2903 48.9348 23.1008V26.8109L46.8472 26.9734V16.6012H46.875ZM52.3586 21.1238C52.7761 20.5822 52.9988 19.7697 52.9988 18.6865C52.9988 17.6845 52.8318 16.9803 52.4699 16.547C52.108 16.1137 51.6627 15.87 51.0781 15.87C50.6606 15.87 50.2988 15.9512 49.9647 16.1408C49.6307 16.3304 49.2967 16.5741 48.9905 16.8991V21.6384C49.1853 21.7467 49.4359 21.8279 49.7142 21.8821C49.9926 21.9362 50.2709 21.9633 50.5214 21.9633C51.3008 21.9633 51.9132 21.6925 52.3586 21.1238Z" fill="black"/>
<path d="M56.3672 16.6012C56.3672 15.9512 56.3394 15.2201 56.3115 14.4347H58.26C58.3435 14.8138 58.3713 15.1659 58.3992 15.545C59.2064 14.6784 60.125 14.2451 61.1827 14.2451C61.7951 14.2451 62.3518 14.3805 62.8807 14.6784C63.4095 14.9763 63.8271 15.4367 64.1333 16.0867C64.4394 16.7366 64.6064 17.5491 64.6064 18.524C64.6064 19.5531 64.4116 20.4468 64.0497 21.178C63.6879 21.9092 63.1868 22.4779 62.5188 22.8299C61.8786 23.2091 61.127 23.3986 60.2641 23.3986C59.6518 23.3986 59.0394 23.2903 58.427 23.1008V26.8109L56.3394 26.9734V16.6012H56.3672ZM61.8508 21.1238C62.2683 20.5822 62.491 19.7697 62.491 18.6865C62.491 17.6845 62.3239 16.9803 61.9621 16.547C61.6002 16.1137 61.1549 15.87 60.5703 15.87C60.1528 15.87 59.7909 15.9512 59.4569 16.1408C59.1229 16.3304 58.7889 16.5741 58.4827 16.8991V21.6384C58.6775 21.7467 58.928 21.8279 59.2064 21.8821C59.4847 21.9362 59.7631 21.9633 60.0136 21.9633C60.793 21.9633 61.4332 21.6925 61.8508 21.1238Z" fill="black"/>
<path d="M68.42 22.7221C67.5293 22.2346 66.8334 21.5575 66.3602 20.6368C65.887 19.7431 65.6365 18.6598 65.6365 17.4412C65.6365 16.1142 65.9148 14.9768 66.4715 14.056C67.0282 13.1352 67.7798 12.4311 68.754 11.9707C69.7004 11.5103 70.786 11.2666 71.9829 11.2666C72.6788 11.2666 73.3468 11.3478 73.987 11.4833C74.6272 11.6457 75.2118 11.8353 75.7685 12.1061L75.2396 13.6769C74.1262 13.1623 73.0685 12.9186 72.0664 12.9186C71.2313 12.9186 70.4798 13.1081 69.8396 13.4602C69.1994 13.8123 68.6983 14.3268 68.3643 15.0038C68.0025 15.6809 67.8355 16.5204 67.8355 17.4683C67.8355 18.3078 67.9746 19.0661 68.253 19.716C68.5313 20.366 68.9489 20.8805 69.5334 21.2867C70.1179 21.6659 70.8695 21.8554 71.7602 21.8554C72.1777 21.8554 72.5674 21.8284 72.985 21.7471C73.4025 21.6659 73.7643 21.5846 74.1262 21.4492V19.039H71.3148V17.4683H76.1582V22.4783C75.4623 22.8033 74.7386 23.047 73.9592 23.2095C73.1798 23.372 72.4283 23.4532 71.6767 23.4532C70.3963 23.4532 69.3386 23.2095 68.42 22.7221Z" fill="black"/>
<path d="M83.477 23.2899C83.3935 22.9378 83.3657 22.5587 83.3378 22.1254C83.0038 22.5045 82.6141 22.8024 82.0853 23.0732C81.5842 23.344 80.9997 23.4524 80.3316 23.4524C79.8028 23.4524 79.3296 23.344 78.912 23.1545C78.4945 22.9649 78.1326 22.667 77.8821 22.2608C77.6316 21.8546 77.4924 21.3671 77.4924 20.7984C77.4924 19.9318 77.7986 19.2547 78.4388 18.7402C79.079 18.2256 80.1368 17.9819 81.6121 17.9819C82.1688 17.9819 82.7255 18.009 83.2543 18.0902V17.9277C83.2543 17.1424 83.0873 16.6008 82.7533 16.2758C82.4193 15.9508 81.9182 15.7883 81.278 15.7883C80.8327 15.7883 80.3595 15.8425 79.8584 15.9779C79.3574 16.1133 78.912 16.2487 78.5223 16.4383L78.1883 14.9759C78.5502 14.8134 79.0512 14.6509 79.6636 14.5155C80.276 14.3801 80.9162 14.2988 81.5842 14.2988C82.3636 14.2988 83.0317 14.4072 83.5884 14.6509C84.1451 14.8946 84.5626 15.2738 84.8688 15.8425C85.175 16.4112 85.342 17.1695 85.342 18.1173V21.6379C85.342 22.017 85.3698 22.5587 85.3977 23.2899H83.477ZM82.2523 21.6379C82.6976 21.4483 83.0317 21.1775 83.31 20.8796V19.2277C82.7533 19.1735 82.2801 19.1464 81.9182 19.1464C81.0554 19.1464 80.4708 19.2818 80.1368 19.5526C79.8028 19.8234 79.6357 20.1755 79.6357 20.6359C79.6357 21.0692 79.7471 21.3942 79.9976 21.6108C80.2481 21.8275 80.5543 21.9358 80.9718 21.9358C81.3894 21.9629 81.8069 21.8546 82.2523 21.6379Z" fill="black"/>
<path d="M86.9844 21.1775V10.724L89.0442 10.5615V20.8254C89.0442 21.2045 89.0998 21.4754 89.239 21.6379C89.3782 21.8003 89.573 21.8816 89.8792 21.8816C90.0184 21.8816 90.1854 21.8545 90.4359 21.8003L90.6865 23.2627C90.4916 23.344 90.2411 23.3981 89.9627 23.4523C89.6844 23.5065 89.406 23.5336 89.1555 23.5336C87.7081 23.4523 86.9844 22.694 86.9844 21.1775Z" fill="black"/>
<path d="M92.1631 21.1775V10.724L94.2229 10.5615V20.8254C94.2229 21.2045 94.2785 21.4754 94.4177 21.6379C94.5569 21.8003 94.7517 21.8816 95.0579 21.8816C95.1971 21.8816 95.3641 21.8545 95.6146 21.8003L95.8651 23.2627C95.6703 23.344 95.4198 23.3981 95.1414 23.4523C94.8631 23.5065 94.5847 23.5336 94.3342 23.5336C92.8868 23.4523 92.1631 22.694 92.1631 21.1775Z" fill="black"/>
<path d="M104.382 19.1198H98.4248C98.5083 20.9613 99.4269 21.9092 101.153 21.9092C101.57 21.9092 102.016 21.855 102.461 21.7467C102.906 21.6384 103.324 21.503 103.741 21.3405L104.187 22.7216C103.157 23.2091 102.016 23.4528 100.763 23.4528C99.7887 23.4528 98.9815 23.2633 98.3135 22.9112C97.6454 22.5591 97.1444 22.0446 96.8104 21.3675C96.4763 20.6905 96.3093 19.9051 96.3093 18.9573C96.3093 17.9824 96.4763 17.1428 96.8382 16.4387C97.2001 15.7346 97.6733 15.193 98.3135 14.8138C98.9537 14.4347 99.6774 14.2451 100.512 14.2451C101.375 14.2451 102.099 14.4347 102.656 14.8409C103.24 15.2201 103.658 15.7617 103.936 16.4116C104.215 17.0616 104.354 17.7928 104.354 18.5782V19.1198H104.382ZM102.35 17.847C102.322 17.1428 102.127 16.6012 101.793 16.2491C101.459 15.8971 101.041 15.7075 100.485 15.7075C99.9557 15.7075 99.5104 15.8971 99.1764 16.2491C98.8145 16.6012 98.5918 17.1428 98.4805 17.8199H102.35V17.847Z" fill="black"/>
<path d="M105.941 16.6549C105.941 16.1674 105.913 15.4363 105.885 14.4342H107.834C107.862 14.678 107.889 14.9759 107.917 15.3279C107.945 15.68 107.973 15.9508 107.973 16.1674C108.223 15.7883 108.446 15.4633 108.697 15.1925C108.919 14.9217 109.198 14.705 109.504 14.5426C109.81 14.3801 110.172 14.2988 110.562 14.2988C110.896 14.2988 111.146 14.3259 111.397 14.4072L111.146 16.1674C110.951 16.1133 110.729 16.0862 110.478 16.0862C109.977 16.0862 109.56 16.1945 109.198 16.4383C108.836 16.682 108.446 17.0882 108.029 17.6298V23.317H105.969V16.6549H105.941Z" fill="black"/>
<path d="M112.566 26.9182C112.26 26.864 112.009 26.8098 111.814 26.7286L112.204 25.2662C112.343 25.2933 112.51 25.3474 112.733 25.3745C112.956 25.4016 113.151 25.4287 113.345 25.4287C114.264 25.4287 114.96 24.86 115.405 23.6955L115.544 23.3705L112.204 14.4607H114.431L116.129 19.4437C116.407 20.2832 116.574 20.9602 116.658 21.3935C116.825 20.7436 116.992 20.1207 117.214 19.4707L118.912 14.4336H121L117.66 23.3976C117.354 24.2371 116.992 24.9412 116.63 25.4558C116.268 25.9703 115.823 26.3494 115.35 26.6203C114.849 26.864 114.264 26.9994 113.54 26.9994C113.206 26.9994 112.872 26.9723 112.566 26.9182Z" fill="black"/>
<path d="M34.2927 0.109375H37.9948L37.8835 0.975982H35.3783V2.65503H37.7443V3.46748H35.3783V5.3361H38.0226L37.9391 6.2027H34.2927V0.109375Z" fill="black"/>
<path d="M40.5549 3.11444L38.6065 0.108398H39.8312L41.1673 2.302L42.5591 0.108398H43.756L41.8075 3.06028L43.8952 6.2288H42.6426L41.1395 3.81856L39.6085 6.2288H38.4116L40.5549 3.11444Z" fill="black"/>
<path d="M44.7041 0.108398H46.4021C47.2093 0.108398 47.8217 0.270887 48.2392 0.595865C48.6567 0.920842 48.8794 1.38123 48.8794 1.97702C48.8794 2.38324 48.7959 2.7353 48.601 3.03319C48.4062 3.33109 48.1557 3.57482 47.7938 3.73731C47.4598 3.8998 47.0701 3.98105 46.6247 3.98105C46.3742 3.98105 46.0959 3.95396 45.7897 3.8998V6.2288H44.7041V0.108398ZM47.432 2.84362C47.6546 2.62697 47.766 2.35616 47.766 1.97702C47.766 1.59788 47.6546 1.32706 47.4041 1.16457C47.1814 1.00209 46.8196 0.920842 46.3742 0.920842H45.7897V3.08736C46.068 3.14152 46.2629 3.14152 46.4021 3.14152C46.8753 3.14152 47.2093 3.03319 47.432 2.84362Z" fill="black"/>
<path d="M49.9644 0.108398H51.0499V5.33512H53.6664L53.5829 6.2288H49.9922V0.108398H49.9644Z" fill="black"/>
<path d="M55.3085 5.93084C54.8353 5.68711 54.5013 5.30797 54.2508 4.84758C54.0003 4.3872 53.8889 3.84557 53.8889 3.22269C53.8889 2.57274 54.0281 2.00403 54.2786 1.51656C54.5291 1.02909 54.9188 0.649955 55.392 0.406222C55.8931 0.135407 56.4498 0 57.1178 0C57.758 0 58.2869 0.135407 58.7601 0.37914C59.2054 0.622873 59.5673 1.00201 59.8178 1.4624C60.0683 1.92278 60.1797 2.46441 60.1797 3.0602C60.1797 3.71016 60.0405 4.27887 59.79 4.76634C59.5395 5.2538 59.1498 5.63294 58.6766 5.87668C58.2034 6.14749 57.6188 6.2829 56.9786 6.2829C56.3106 6.30998 55.7539 6.17457 55.3085 5.93084ZM58.1199 5.17256C58.4261 4.98299 58.6487 4.71217 58.8158 4.36011C58.9549 4.00805 59.0384 3.60183 59.0384 3.16853C59.0384 2.73523 58.9828 2.32901 58.8436 2.00403C58.7044 1.65197 58.5096 1.38115 58.2034 1.19158C57.8972 0.974932 57.5353 0.893688 57.0621 0.893688C56.6168 0.893688 56.2549 1.00201 55.9487 1.19158C55.6425 1.40824 55.4199 1.67905 55.2528 2.03111C55.0858 2.38317 55.0302 2.76231 55.0302 3.19561C55.0302 3.62891 55.1137 4.03514 55.2528 4.3872C55.392 4.73925 55.6147 5.01007 55.9209 5.22672C56.2271 5.44337 56.5889 5.52462 57.0343 5.52462C57.4518 5.47045 57.8137 5.38921 58.1199 5.17256Z" fill="black"/>
<path d="M61.377 0.108398H63.3533C64.077 0.108398 64.6058 0.243806 64.9955 0.51462C65.3852 0.785434 65.5522 1.19166 65.5522 1.7062C65.5522 2.03118 65.4966 2.32908 65.3574 2.57281C65.2182 2.81654 65.0512 3.03319 64.8564 3.1686C64.6615 3.33109 64.4667 3.43942 64.244 3.52066L66.1924 6.2288H64.912L63.2697 3.79147H62.4625V6.2288H61.377V0.108398ZM63.0749 3.00611C63.3254 3.00611 63.5759 2.95195 63.7708 2.84362C63.9656 2.7353 64.1326 2.59989 64.244 2.41032C64.3553 2.22075 64.411 2.0041 64.411 1.78745C64.411 1.48955 64.2997 1.24582 64.1048 1.11041C63.91 0.975005 63.6038 0.89376 63.2419 0.89376H62.4625V2.97903H63.0749V3.00611Z" fill="black"/>
<path d="M67.0261 0.108398H70.7282L70.6169 0.975005H68.1117V2.65406H70.4777V3.4665H68.1117V5.33512H70.7561L70.6726 6.20173H67.0261V0.108398Z" fill="black"/>
<path d="M74.7651 0.109375H75.8507V6.22978H74.7651V0.109375Z" fill="black"/>
<path d="M78.7466 0.974744H76.7981L76.8816 0.0810547H81.7806L81.6692 0.974744H79.8043V6.22855H78.7187V0.974744H78.7466Z" fill="black"/>
<path d="M86.5124 5.93084C86.0392 5.68711 85.7051 5.30797 85.4546 4.84758C85.2041 4.3872 85.0928 3.84557 85.0928 3.22269C85.0928 2.57274 85.2319 2.00403 85.4825 1.51656C85.733 1.02909 86.1227 0.649955 86.5959 0.406222C87.0969 0.135407 87.6536 0 88.3217 0C88.9619 0 89.4908 0.135407 89.964 0.37914C90.4093 0.622873 90.7712 1.00201 91.0217 1.4624C91.2722 1.92278 91.3836 2.46441 91.3836 3.0602C91.3836 3.71016 91.2444 4.27887 90.9939 4.76634C90.7434 5.2538 90.3537 5.63294 89.8805 5.87668C89.4073 6.14749 88.8227 6.2829 88.1825 6.2829C87.5145 6.30998 86.9577 6.17457 86.5124 5.93084ZM89.3238 5.17256C89.6299 4.98299 89.8526 4.71217 90.0196 4.36011C90.1588 4.00805 90.2423 3.60183 90.2423 3.16853C90.2423 2.73523 90.1867 2.32901 90.0475 2.00403C89.9083 1.65197 89.7135 1.38115 89.4073 1.19158C89.1011 0.974932 88.7392 0.893688 88.266 0.893688C87.8206 0.893688 87.4588 1.00201 87.1526 1.19158C86.8464 1.40824 86.6237 1.67905 86.4567 2.03111C86.2897 2.38317 86.234 2.76231 86.234 3.19561C86.234 3.62891 86.3175 4.03514 86.4567 4.3872C86.5959 4.73925 86.8186 5.01007 87.1248 5.22672C87.4309 5.44337 87.7928 5.52462 88.2382 5.52462C88.6279 5.47045 89.0176 5.38921 89.3238 5.17256Z" fill="black"/>
<path d="M92.5789 0.108398H93.8314L96.949 4.84765C96.9211 4.38727 96.9211 3.98104 96.9211 3.6019V0.108398H97.9232V6.2288H96.7263L93.5531 1.40831C93.5809 1.94994 93.6088 2.4374 93.6088 2.87071V6.2288H92.6067V0.108398H92.5789Z" fill="black"/>
<path fill-rule="evenodd" clip-rule="evenodd" d="M18.9837 0.135742H7.43202C1.97631 0.135742 0 2.08561 0 7.36649V18.6053C0 23.9133 2.00414 25.8361 7.43202 25.8361H18.9837C24.4394 25.8361 26.4157 23.8862 26.4157 18.6053V7.36649C26.4435 2.08561 24.4394 0.135742 18.9837 0.135742Z" fill="#C8102E"/>
<path d="M5.23317 13H5.92906V16.3581H5.23317V15.004H3.64657V16.3581H2.95068V13H3.64657V14.3541H5.23317V13ZM9.18578 14.9228C9.18578 15.4644 8.90743 15.7623 8.4064 15.7623C7.90536 15.7623 7.62701 15.4644 7.62701 14.8957V13H6.93113V14.9228C6.93113 15.8706 7.46 16.4123 8.4064 16.4123C9.35279 16.4123 9.9095 15.8706 9.9095 14.8957V13H9.21362V14.9228H9.18578ZM17.2858 15.3019L16.5065 13H15.9219L15.1425 15.3019L14.391 13H13.6394L14.8363 16.3581H15.4209L16.2003 14.1374L16.9797 16.3581H17.5642L18.7611 13H18.0374L17.2858 15.3019ZM20.0415 14.9228H21.322V14.2999H20.0415V13.6229H21.9065V13H19.3735V16.3581H21.99V15.7352H20.0694V14.9228H20.0415ZM22.7972 16.3581H23.4931V13H22.7972V16.3581ZM11.2734 15.654L10.9672 16.3581H10.2435L11.7466 13H12.359L13.8621 16.3581H13.1384L12.86 15.654H11.2734ZM11.5239 15.0582H12.5817L12.0528 13.8666L11.5239 15.0582Z" fill="white"/>
<path d="M13.2215 8.72028C10.7998 8.72028 8.82349 6.7975 8.82349 4.44141H9.43586C9.43586 6.47252 11.1338 8.12449 13.2215 8.12449C15.3091 8.12449 17.0071 6.47252 17.0071 4.44141H17.6194C17.6194 6.7975 15.6431 8.72028 13.2215 8.72028Z" fill="white"/>
</svg>
